<?xml version="1.0" standalone="no"?>
<!DOCTYPE svg PUBLIC "-//W3C//DTD SVG 20010904//EN"
 "http://www.w3.org/TR/2001/REC-SVG-20010904/DTD/svg10.dtd">
<svg version="1.0" xmlns="http://www.w3.org/2000/svg"
 width="500.000000pt" height="500.000000pt" viewBox="0 0 500.000000 500.000000"
 preserveAspectRatio="xMidYMid meet">

<g transform="translate(0.000000,500.000000) scale(0.100000,-0.100000)"
fill="#000000" stroke="none">
<path d="M2405 3776 c-5 -2 -35 -12 -65 -21 -46 -14 -330 -169 -682 -372 -157
-90 -227 -167 -273 -298 l-25 -70 0 -446 c0 -420 1 -449 20 -507 38 -116 98
-198 194 -267 35 -25 66 -45 70 -45 3 0 39 -20 79 -44 98 -59 489 -282 547
-311 117 -60 273 -70 394 -27 51 19 338 178 676 376 158 92 244 190 287 326
16 49 18 103 18 495 0 428 -1 442 -22 500 -50 138 -132 236 -258 306 -89 49
-140 78 -385 217 -140 80 -280 154 -310 165 -50 19 -234 34 -265 23z m618
-738 c14 -15 69 -151 146 -363 140 -386 218 -599 232 -634 8 -19 6 -30 -8 -49
-20 -27 -228 -151 -254 -152 -25 0 -44 29 -69 107 -32 100 -33 101 -67 81 -53
-30 -358 -201 -385 -215 -24 -12 -30 -27 -55 -136 -35 -150 -43 -162 -123
-154 -62 5 -174 57 -189 86 -5 10 8 82 34 191 23 96 59 243 79 325 58 239 132
526 151 580 37 106 59 130 190 202 50 27 111 61 136 76 82 47 142 77 151 77 5
0 19 -10 31 -22z"/>
<path d="M2792 2612 c-19 -15 -31 -54 -73 -241 -28 -122 -49 -225 -46 -227 4
-5 27 6 137 68 118 66 140 80 140 86 0 4 -23 80 -52 170 -56 171 -61 178 -106
144z"/>
</g>
</svg>
